{"title":"Troy 2004 DVDRip Hindi GOPI SAHI","uid":11629404,"size":924518039,"categoryP":"video","categoryS":"movies","magnet":"?xt=urn:btih:05e4c43a448d4b291dd1593af6ff568012768544&amp;dn=Troy+2004+DVDRip+Hindi+GOPI+SAHI&amp;tr=udp%3A%2F%2Ftracker.openbittorrent.com%3A80&amp;tr=udp%3A%2F%2Fopen.demonii.com%3A1337&amp;tr=udp%3A%2F%2Ftracker.coppersurfer.tk%3A6969&amp;tr=udp%3A%2F%2Fexodus.desync.com%3A6969","seeders":3,"leechers":3,"uploader":"jatt13","files":1,"time":1417661960,"description":"General\nUnique ID                      : 243747217955047824824314486581053925947 (0xB76001B00498CE30A0B0FFCCBA38AA3B)\nComplete name                  : D:FILMDUBTroy 2004 DVDRip Hindi GOPI SAHI.mkv\nFormat                         : Matroska\nFormat version                 : Version 4 / Version 2\nFile size                      : 882 MiB\nDuration                       : 2h 35mn\nOverall bit rate               : 793 Kbps\nMovie name                     : GOPI SAHI\nEncoded date                   : UTC 2014-11-30 23:44:38\nWriting application            : mkvmerge v6.5.0 ('Isn't she lovely') built on Oct 20 2013 12:50:05\nWriting library                : libebml v1.3.0 + libmatroska v1.4.1\n\nVideo\nID                             : 1\nFormat                         : AVC\nFormat/Info                    : Advanced Video Codec\nFormat profile                 : &lt;a class=&quot;__cf_email__&quot; href=&quot;/cdn-cgi/l/email-protection&quot; data-cfemail=&quot;5c14353b341c1068726d&quot;&gt;[email&amp;#160;protected]&lt;/a&gt;&lt;script cf-hash='f9e31' type=&quot;text/javascript&quot;&gt;\n/* &lt;![CDATA[ */!function(){try{var t=&quot;currentScript&quot;in document?document.currentScript:function(){for(var t=document.getElementsByTagName(&quot;script&quot;),e=t.length;e--;)if(t[e].getAttribute(&quot;cf-hash&quot;))return t[e]}();if(t&amp;&amp;t.previousSibling){var e,r,n,i,c=t.previousSibling,a=c.getAttribute(&quot;data-cfemail&quot;);if(a){for(e=&quot;&quot;,r=parseInt(a.substr(0,2),16),n=2;a.length-n;n+=2)i=parseInt(a.substr(n,2),16)^r,e+=String.fromCharCode(i);e=document.createTextNode(e),c.parentNode.replaceChild(e,c)}}}catch(u){}}();/* ]]&gt; */&lt;/script&gt;\nFormat settings, CABAC         : Yes\nFormat settings, ReFrames      : 10 frames\nCodec ID                       : V_MPEG4/ISO/AVC\nDuration                       : 2h 35mn\nBit rate                       : 514 Kbps\nWidth                          : 704 pixels\nHeight                         : 352 pixels\nDisplay aspect ratio           : 2.40:1\nOriginal display aspect ratio  : 2.40:1\nFrame rate mode                : Constant\nFrame rate                     : 25.000 fps\nOriginal frame rate            : 23.976 fps\nColor space                    : YUV\nChroma subsampling             : 4:2:0\nBit depth                      : 8 bits\nScan type                      : Progressive\nBits/(Pixel*Frame)             : 0.083\nStream size                    : 580 MiB (66%)\nTitle                          : GOPI SAHI\nWriting library                : x264 core 60 r900 a9af942\n\nLanguage                       : Hindi\nDefault                        : Yes\nForced                         : No\n\nAudio\nID                             : 2\nFormat                         : MPEG Audio\nFormat version                 : Version 1\nFormat profile                 : Layer 3\nCodec ID                       : A_MPEG/L3\nCodec ID/Hint                  : MP3\nDuration                       : 2h 35mn\nBit rate mode                  : Constant\nBit rate                       : 256 Kbps\nChannel(s)                     : 2 channels\nSampling rate                  : 44.1 KHz\nCompression mode               : Lossy\nDelay relative to video        : 21ms\nStream size                    : 285 MiB (32%)\nTitle                          : GOPI SAHI\nLanguage                       : Hindi\nDefault                        : Yes\nForced                         : No\n[img]http://i.imgur.com/due73aQ.jpg[/img]\n[img]http://i.imgur.com/uOK0poc.jpg[/img]\n[img]http://i.imgur.com/zEkLiPo.jpg[/img]","torrent":{"xt":"urn:btih:05e4c43a448d4b291dd1593af6ff568012768544","amp;dn":"Troy+2004+DVDRip+Hindi+GOPI+SAHI","amp;tr":["udp%3A%2F%2Ftracker.openbittorrent.com%3A80","udp%3A%2F%2Fopen.demonii.com%3A1337","udp%3A%2F%2Ftracker.coppersurfer.tk%3A6969","udp%3A%2F%2Fexodus.desync.com%3A6969"],"infoHash":"05e4c43a448d4b291dd1593af6ff568012768544","infoHashBuffer":{"type":"Buffer","data":[5,228,196,58,68,141,75,41,29,209,89,58,246,255,86,128,18,118,133,68]},"announce":[],"urlList":[]}}